<?xml version="1.0" encoding="UTF-8"?><!DOCTYPE svg PUBLIC "-//W3C//DTD SVG 1.1//EN" "http://www.w3.org/Graphics/SVG/1.1/DTD/svg11.dtd"><svg xmlns="http://www.w3.org/2000/svg" xmlns:xlink="http://www.w3.org/1999/xlink" version="1.1" id="Layer_1" x="0px" y="0px" width="127.999px" height="128px" viewBox="0 0 127.999 128" xml:space="preserve"><style type="text/css"><![CDATA[
	.st0{fill:#231F20;}
]]></style><path class="st0" d="M64 7.989c-30.885 0-56.01 25.126-56.01 56.01 0 30.885 25.125 56.012 56.01 56.012 30.883 0 56.01-25.127 56.01-56.012 0-30.884-25.127-56.01-56.01-56.01zm15.83 35.358a1 1 0 0 1-1 1l-6.367.004c-4.201 0-4.969 1.636-4.969 4.858v6.684h10.92c.287 0 .561.124.75.34s.277.503.242.788l-1.555 12.033a1 1 0 0 1-.992.872h-9.365v29.879a1 1 0 0 1-1 1H54.07a1 1 0 0 1-1-1V69.926h-9.395a1 1 0 0 1-1-1V56.893a1 1 0 0 1 1-1h9.395v-7.875c0-10.43 6.312-16.908 16.475-16.908 4.369 0 8.23.325 9.416.482a1 1 0 0 1 .869.991v10.764z" fill="#231F20"/><metadata><rdf:RDF xmlns:rdf="http://www.w3.org/1999/02/22-rdf-syntax-ns#" xmlns:rdfs="http://www.w3.org/2000/01/rdf-schema#" xmlns:dc="http://purl.org/dc/elements/1.1/"><rdf:Description about="https://iconscout.com/legal#licenses" dc:title="social,networks,networks-" dc:description="social,networks,networks-" dc:publisher="Iconscout" dc:date="2018-01-30" dc:format="image/svg+xml" dc:language="en"><dc:creator><rdf:Bag><rdf:li>Roundicons.com</rdf:li></rdf:Bag></dc:creator></rdf:Description></rdf:RDF></metadata></svg>