<?xml version="1.0" encoding="utf-8"?>
<!-- Svg Vector Icons : http://www.onlinewebfonts.com/icon -->
<!DOCTYPE svg PUBLIC "-//W3C//DTD SVG 1.1//EN" "http://www.w3.org/Graphics/SVG/1.1/DTD/svg11.dtd">
<svg version="1.1" xmlns="http://www.w3.org/2000/svg" xmlns:xlink="http://www.w3.org/1999/xlink" x="0px" y="0px" viewBox="0 0 1000 1000" enable-background="new 0 0 1000 1000" xml:space="preserve">
<metadata> Svg Vector Icons : http://www.onlinewebfonts.com/icon </metadata>
<g><g><g><g><path d="M589.3,430.4c-41.9,0-60.7,23.1-71.1,39.2V436h-79c1,22.3,0,237.7,0,237.7h79V540.9c0-7.1,0.5-14.2,2.6-19.3c5.7-14.2,18.7-28.9,40.5-28.9c28.6,0,40,21.8,40,53.8v127.2h79h0V537.3C680.2,464.3,641.2,430.4,589.3,430.4z M518.1,470.4h-0.5c0.2-0.3,0.4-0.5,0.5-0.8V470.4z"/><rect x="316.4" y="436" width="79" height="237.7"/><path d="M500,10C229.8,10,10,229.8,10,500c0,270.2,219.8,490,490,490c270.2,0,490-219.8,490-490C990,229.8,770.2,10,500,10z M759.8,721.6c0,20.9-17.3,37.7-38.7,37.7H275.5c-21.3,0-38.6-16.8-38.6-37.7V270.7c0-20.8,17.3-37.7,38.6-37.7h445.7c21.3,0,38.7,16.9,38.7,37.7V721.6z"/><path d="M356.4,321.4c-27,0-44.7,17.7-44.7,41.1c0,22.8,17.2,41.1,43.6,41.1h0.5c27.6,0,44.7-18.3,44.7-41.1C400.1,339.1,383.4,321.4,356.4,321.4z"/></g></g></g><g></g><g></g><g></g><g></g><g></g><g></g><g></g><g></g><g></g><g></g><g></g><g></g><g></g><g></g><g></g></g>
</svg>