<svg height="512pt" viewBox="0 0 512 512" width="512pt" xmlns="http://www.w3.org/2000/svg"><path d="m437.019531 74.980469c-48.351562-48.351563-112.640625-74.980469-181.019531-74.980469s-132.667969 26.628906-181.019531 74.980469c-48.351563 48.351562-74.980469 112.636719-74.980469 181.019531 0 68.378906 26.628906 132.667969 74.980469 181.019531 48.351562 48.351563 112.640625 74.980469 181.019531 74.980469s132.667969-26.628906 181.019531-74.980469c48.351563-48.351562 74.980469-112.640625 74.980469-181.019531 0-68.382812-26.628906-132.667969-74.980469-181.019531zm-62.730469 286.507812c-2.507812 5.542969-7.964843 8.824219-13.679687 8.824219-2.066406 0-4.164063-.425781-6.167969-1.335938-45.941406-20.765624-95.011718-31.292968-145.851562-31.292968-27.066406 0-54.03125 3.058594-80.148438 9.09375-8.070312 1.867187-16.128906-3.167969-17.992187-11.242188-1.863281-8.070312 3.167969-16.125 11.238281-17.988281 28.328125-6.542969 57.566406-9.863281 86.902344-9.863281 55.128906 0 108.355468 11.425781 158.207031 33.957031 7.550781 3.414063 10.902344 12.300781 7.492187 19.847656zm31.664063-71.796875c-2.503906 5.554688-7.96875 8.84375-13.6875 8.84375-2.0625 0-4.152344-.425781-6.148437-1.324218-55.941407-25.183594-115.671876-37.949219-177.527344-37.949219-31.652344 0-63.230469 3.429687-93.851563 10.199219-8.089843 1.789062-16.097656-3.320313-17.882812-11.410157-1.789063-8.089843 3.320312-16.097656 11.410156-17.886719 32.742187-7.234374 66.496094-10.902343 100.324219-10.902343 66.128906 0 130.003906 13.65625 189.839844 40.59375 7.554687 3.402343 10.921874 12.28125 7.523437 19.835937zm30.660156-69.546875c-2.496093 5.5625-7.964843 8.859375-13.691406 8.859375-2.054687 0-4.140625-.421875-6.136719-1.316406-65.621094-29.457031-135.664062-44.394531-208.191406-44.394531-36.074219 0-72.085938 3.792969-107.042969 11.269531-8.101562 1.742188-16.074219-3.425781-17.808593-11.527344-1.730469-8.101562 3.429687-16.074218 11.53125-17.808594 37.015624-7.917968 75.140624-11.933593 113.320312-11.933593 76.789062 0 150.96875 15.820312 220.476562 47.023437 7.558594 3.394532 10.9375 12.269532 7.542969 19.828125zm0 0"/></svg>