<?xml version="1.0" encoding="utf-8"?>
<!-- Svg Vector Icons : http://www.onlinewebfonts.com/icon -->
<!DOCTYPE svg PUBLIC "-//W3C//DTD SVG 1.1//EN" "http://www.w3.org/Graphics/SVG/1.1/DTD/svg11.dtd">
<svg version="1.1" xmlns="http://www.w3.org/2000/svg" xmlns:xlink="http://www.w3.org/1999/xlink" x="0px" y="0px" viewBox="0 0 1000 1000" enable-background="new 0 0 1000 1000" xml:space="preserve">
<metadata> Svg Vector Icons : http://www.onlinewebfonts.com/icon </metadata>
<g><g transform="translate(0.000000,512.000000) scale(0.100000,-0.100000)"><path d="M4541.9,5008.4c-1157.1-113-2210.8-613-3026.9-1438.7C756.4,2801.4,306.2,1895.3,135.6,793.7c-51.7-339.1-46-1032.6,9.6-1388.9c86.2-544.1,224.1-980.9,465.5-1463.6c475.1-961.7,1241.4-1726.1,2203.1-2203.1c1371.7-682,2956-689.7,4321.9-23c505.7,247.1,864,500,1268.2,892.7c436.8,425.3,712.6,802.7,977,1333.4c687.7,1379.3,691.6,2959.8,13.4,4337.2c-260.5,524.9-513.4,881.2-917.6,1291.2c-764.4,772.1-1691.6,1241.4-2791.2,1410C5448,5016,4792.8,5031.4,4541.9,5008.4z M5451.8,4412.6c988.5-107.3,1885.1-536.4,2590.1-1243.3c821.9-821.9,1264.4-1885.1,1264.4-3046c0-1159-442.5-2226.1-1264.4-3046c-819.9-821.9-1887-1264.4-3046-1264.4c-1160.9,0-2224.2,442.5-3046,1264.4C1128-2101,685.5-1037.7,685.5,123.2c0,1160.9,440.6,2224.2,1264.4,3046c695.4,697.3,1593.9,1134.1,2557.5,1241.4C4725.8,4435.6,5233.5,4437.5,5451.8,4412.6z"/><path d="M5559.1,1947c-137.9-49.8-281.6-145.6-383.1-258.6c-166.7-185.8-237.6-383.1-237.6-668.6V830.1l-61.3,9.6c-272,44.1-423.4,78.5-567.1,130.3c-396.6,139.8-718.4,350.6-1057.5,693.5c-78.5,80.5-147.5,145.6-155.2,145.6c-32.6,0-99.6-306.5-99.6-459.8c-1.9-258.6,63.2-436.8,233.7-641.8c44.1-51.7,78.5-101.5,78.5-109.2c0-24.9-57.5-17.2-195.4,26.8c-70.9,23-136,36.4-141.8,28.7c-19.2-19.2,55.6-312.3,109.2-423.4c69-149.4,262.5-339.1,434.9-431l147.5-76.6l-168.6-1.9c-197.3,0-208.8-11.5-145.6-141.7c93.9-201.2,308.4-377.4,582.4-480.9l166.7-61.3l-114.9-70.9c-279.7-168.6-540.2-254.8-837.2-272c-235.6-13.4-300.8-24.9-285.4-49.8c19.2-30.6,421.5-218.4,582.4-270.1c657.1-212.6,1498.1-107.3,2059.4,256.7C5990.2-1053,6409.7-489.8,6584.1,75.3c70.9,231.8,130.3,523,145.6,718.4c21.1,254.8,21.1,256.7,168.6,415.7c306.5,329.5,312.3,352.5,69,270.1c-107.3-36.4-180.1-51.7-191.6-40.2c-11.5,11.5,19.2,63.2,78.5,137.9c101.5,126.4,203.1,304.6,183.9,323.8c-5.7,5.8-61.3-13.4-120.7-44.1c-116.8-57.5-360.2-143.7-402.3-143.7c-15.3,0-80.5,38.3-145.6,84.3c-216.5,153.3-266.3,170.5-501.9,178.2C5699,1981.5,5637.7,1975.8,5559.1,1947z"/></g></g>
</svg>