<?xml version="1.0" standalone="no"?>
<!DOCTYPE svg PUBLIC "-//W3C//DTD SVG 20010904//EN"
 "http://www.w3.org/TR/2001/REC-SVG-20010904/DTD/svg10.dtd">
<svg version="1.0" xmlns="http://www.w3.org/2000/svg"
 width="1400.000000pt" height="1400.000000pt" viewBox="0 0 1400.000000 1400.000000"
 preserveAspectRatio="xMidYMid meet">
<metadata>
Created by potrace 1.11, written by Peter Selinger 2001-2013
</metadata>
<g transform="translate(0.000000,1400.000000) scale(0.100000,-0.100000)"
fill="#000000" stroke="none">
<path d="M2045 12078 c-3 -7 177 -461 400 -1008 223 -547 1167 -2864 2097
-5147 l1692 -4153 776 0 777 0 488 1198 c268 658 787 1931 1152 2827 366 897
966 2368 1333 3270 368 902 794 1948 948 2325 153 377 276 689 272 693 -4 4
-342 7 -751 5 l-744 -3 -72 -26 c-89 -33 -178 -102 -244 -189 -54 -71 24 122
-1387 -3420 -1757 -4409 -1667 -4180 -1743 -4440 l-21 -75 -68 205 c-72 220
-3001 7545 -3068 7674 -75 144 -191 233 -338 261 -104 20 -1492 22 -1499 3z"/>
</g>
</svg>
